<svg width="141" height="36" viewBox="0 0 141 36" fill="none" xmlns="http://www.w3.org/2000/svg">
<path d="M38.8254 9.81906C39.1978 9.81906 39.518 9.95313 39.7862 10.2213C40.0692 10.4745 40.2107 10.7948 40.2107 11.1821V24.1198C40.2107 24.5071 40.0841 24.8348 39.8309 25.1029C39.5776 25.3562 39.2425 25.4828 38.8254 25.4828C38.4083 25.4828 38.0656 25.3562 37.7975 25.1029C37.5442 24.8497 37.4176 24.522 37.4176 24.1198V15.1148L33.7307 20.7457C33.5818 20.9244 33.4105 21.0734 33.2168 21.1926C33.0231 21.2969 32.822 21.3415 32.6135 21.3267C32.4198 21.3415 32.2262 21.2969 32.0325 21.1926C31.8389 21.0734 31.6676 20.9244 31.5186 20.7457L27.8317 14.9137V24.1198C27.8317 24.522 27.7125 24.8497 27.4742 25.1029C27.2358 25.3562 26.923 25.4828 26.5357 25.4828C26.1633 25.4828 25.8579 25.3562 25.6196 25.1029C25.3812 24.8348 25.262 24.5071 25.262 24.1198V11.1821C25.262 10.8097 25.3961 10.4894 25.6643 10.2213C25.9473 9.95313 26.2825 9.81906 26.6698 9.81906C26.8932 9.81906 27.1167 9.87865 27.3401 9.99782C27.5636 10.1021 27.7349 10.2436 27.854 10.4224L32.7252 17.9079L37.7305 10.4224C37.8496 10.2436 38.006 10.1021 38.1997 9.99782C38.4083 9.87865 38.6168 9.81906 38.8254 9.81906ZM53.0218 13.3049C53.4091 13.3049 53.7294 13.4315 53.9827 13.6847C54.2359 13.938 54.3625 14.2657 54.3625 14.6679V24.1198C54.3625 24.5071 54.2359 24.8348 53.9827 25.1029C53.7294 25.3562 53.4091 25.4828 53.0218 25.4828C52.6345 25.4828 52.3142 25.3562 52.061 25.1029C51.8227 24.8497 51.696 24.5294 51.6811 24.1421C51.3087 24.5741 50.8022 24.9465 50.1617 25.2593C49.536 25.5573 48.8731 25.7062 48.173 25.7062C47.1451 25.7062 46.2141 25.4455 45.3799 24.9242C44.5457 24.3879 43.8828 23.6505 43.3912 22.712C42.9145 21.7735 42.6762 20.7084 42.6762 19.5167C42.6762 18.325 42.9145 17.2599 43.3912 16.3214C43.8679 15.368 44.5159 14.6307 45.3352 14.1093C46.1694 13.573 47.0855 13.3049 48.0836 13.3049C48.7987 13.3049 49.469 13.4389 50.0947 13.7071C50.7203 13.9603 51.2491 14.288 51.6811 14.6902V14.6679C51.6811 14.2806 51.8078 13.9603 52.061 13.7071C52.3142 13.4389 52.6345 13.3049 53.0218 13.3049ZM48.5082 23.2483C49.4764 23.2483 50.266 22.8982 50.8767 22.1981C51.4875 21.4831 51.7929 20.5893 51.7929 19.5167C51.7929 18.4442 51.4875 17.5504 50.8767 16.8353C50.266 16.1203 49.4764 15.7628 48.5082 15.7628C47.5548 15.7628 46.7727 16.1203 46.162 16.8353C45.5512 17.5504 45.2458 18.4442 45.2458 19.5167C45.2458 20.5893 45.5438 21.4831 46.1396 22.1981C46.7504 22.8982 47.5399 23.2483 48.5082 23.2483ZM63.659 13.3049C65.1785 13.3049 66.2287 13.7592 66.8096 14.6679C67.3906 15.5617 67.6811 16.8055 67.6811 18.3995V24.1198C67.6811 24.5071 67.5545 24.8348 67.3012 25.1029C67.048 25.3562 66.7277 25.4828 66.3404 25.4828C65.9531 25.4828 65.6328 25.3562 65.3796 25.1029C65.1263 24.8348 64.9997 24.5071 64.9997 24.1198V18.3995C64.9997 17.5802 64.8284 16.9396 64.4858 16.4778C64.1431 16.0011 63.5547 15.7628 62.7205 15.7628C61.8565 15.7628 61.1787 16.016 60.6871 16.5225C60.1956 17.0141 59.9498 17.6398 59.9498 18.3995V24.1198C59.9498 24.5071 59.8231 24.8348 59.5699 25.1029C59.3167 25.3562 58.9964 25.4828 58.6091 25.4828C58.2218 25.4828 57.9015 25.3562 57.6483 25.1029C57.395 24.8348 57.2684 24.5071 57.2684 24.1198V14.8913C57.2684 14.504 57.395 14.1838 57.6483 13.9305C57.9015 13.6624 58.2218 13.5283 58.6091 13.5283C58.9964 13.5283 59.3167 13.6624 59.5699 13.9305C59.8231 14.1838 59.9498 14.504 59.9498 14.8913V15.2712C60.352 14.7349 60.8734 14.2731 61.5139 13.8858C62.1694 13.4985 62.8844 13.3049 63.659 13.3049ZM80.2546 13.3049C80.6419 13.3049 80.9622 13.4315 81.2154 13.6847C81.4687 13.938 81.5953 14.2657 81.5953 14.6679V24.1198C81.5953 24.5071 81.4687 24.8348 81.2154 25.1029C80.9622 25.3562 80.6419 25.4828 80.2546 25.4828C79.8673 25.4828 79.547 25.3562 79.2938 25.1029C79.0554 24.8497 78.9288 24.5294 78.9139 24.1421C78.5415 24.5741 78.035 24.9465 77.3944 25.2593C76.7688 25.5573 76.1059 25.7062 75.4058 25.7062C74.3779 25.7062 73.4469 25.4455 72.6127 24.9242C71.7784 24.3879 71.1155 23.6505 70.624 22.712C70.1473 21.7735 69.9089 20.7084 69.9089 19.5167C69.9089 18.325 70.1473 17.2599 70.624 16.3214C71.1007 15.368 71.7487 14.6307 72.568 14.1093C73.4022 13.573 74.3183 13.3049 75.3164 13.3049C76.0314 13.3049 76.7018 13.4389 77.3274 13.7071C77.9531 13.9603 78.4819 14.288 78.9139 14.6902V14.6679C78.9139 14.2806 79.0405 13.9603 79.2938 13.7071C79.547 13.4389 79.8673 13.3049 80.2546 13.3049ZM75.7409 23.2483C76.7092 23.2483 77.4987 22.8982 78.1095 22.1981C78.7202 21.4831 79.0256 20.5893 79.0256 19.5167C79.0256 18.4442 78.7202 17.5504 78.1095 16.8353C77.4987 16.1203 76.7092 15.7628 75.7409 15.7628C74.7875 15.7628 74.0055 16.1203 73.3947 16.8353C72.784 17.5504 72.4786 18.4442 72.4786 19.5167C72.4786 20.5893 72.7765 21.4831 73.3724 22.1981C73.9831 22.8982 74.7727 23.2483 75.7409 23.2483ZM94.3999 13.3049C94.7872 13.3049 95.1075 13.4315 95.3607 13.6847C95.614 13.938 95.7406 14.2657 95.7406 14.6679V24.6113C95.7406 26.4287 95.1745 27.7694 94.0424 28.6334C92.9251 29.5123 91.5025 29.9518 89.7745 29.9518C89.3276 29.9518 88.7094 29.8773 87.9199 29.7283C87.1453 29.5793 86.5941 29.4304 86.2664 29.2814C85.5365 28.9686 85.1715 28.5366 85.1715 27.9854C85.1715 27.8811 85.1938 27.762 85.2385 27.6279C85.3279 27.3002 85.4769 27.0469 85.6854 26.8682C85.9089 26.7043 86.1472 26.6224 86.4005 26.6224C86.5494 26.6224 86.6909 26.6447 86.825 26.6894C86.8846 26.7043 87.2496 26.8384 87.9199 27.0916C88.6051 27.3598 89.2233 27.4938 89.7745 27.4938C90.8769 27.4938 91.6962 27.2704 92.2325 26.8235C92.7836 26.3915 93.0592 25.7733 93.0592 24.9689V23.8963C92.7315 24.3581 92.2325 24.7752 91.5621 25.1476C90.9067 25.52 90.1991 25.7062 89.4393 25.7062C88.3966 25.7062 87.4432 25.4455 86.5792 24.9242C85.7301 24.3879 85.0598 23.6505 84.5682 22.712C84.0766 21.7735 83.8308 20.7084 83.8308 19.5167C83.8308 18.325 84.0691 17.2599 84.5458 16.3214C85.0374 15.368 85.7003 14.6307 86.5345 14.1093C87.3836 13.573 88.3221 13.3049 89.35 13.3049C90.1097 13.3049 90.8173 13.4613 91.4727 13.7741C92.1282 14.0869 92.657 14.4668 93.0592 14.9137V14.6679C93.0592 14.2806 93.1858 13.9603 93.4391 13.7071C93.6923 13.4389 94.0126 13.3049 94.3999 13.3049ZM89.7745 23.2483C90.7726 23.2483 91.5845 22.8982 92.2101 22.1981C92.8507 21.4831 93.1709 20.5893 93.1709 19.5167C93.1709 18.4442 92.8507 17.5504 92.2101 16.8353C91.5845 16.1203 90.7726 15.7628 89.7745 15.7628C88.7765 15.7628 87.9646 16.1203 87.3389 16.8353C86.7133 17.5504 86.4005 18.4442 86.4005 19.5167C86.4005 20.5893 86.7133 21.4831 87.3389 22.1981C87.9646 22.8982 88.7765 23.2483 89.7745 23.2483ZM108.93 19.2262C108.915 19.5838 108.774 19.8742 108.506 20.0977C108.238 20.3211 107.925 20.4329 107.567 20.4329H100.193C100.372 21.3118 100.782 22.0044 101.422 22.5109C102.063 23.0025 102.785 23.2483 103.59 23.2483C104.201 23.2483 104.677 23.1962 105.02 23.0919C105.363 22.9727 105.631 22.8535 105.824 22.7344C106.033 22.6003 106.174 22.5109 106.249 22.4662C106.517 22.3322 106.77 22.2651 107.009 22.2651C107.321 22.2651 107.59 22.3769 107.813 22.6003C108.037 22.8238 108.148 23.0844 108.148 23.3824C108.148 23.7846 107.94 24.1495 107.523 24.4773C107.105 24.8199 106.547 25.1104 105.847 25.3487C105.147 25.5871 104.439 25.7062 103.724 25.7062C102.473 25.7062 101.378 25.4455 100.439 24.9242C99.5157 24.4028 98.8007 23.6878 98.2942 22.7791C97.7877 21.8555 97.5345 20.8202 97.5345 19.6731C97.5345 18.392 97.8026 17.2673 98.3389 16.2991C98.8752 15.3308 99.5827 14.5934 100.462 14.0869C101.341 13.5655 102.279 13.3049 103.277 13.3049C104.26 13.3049 105.184 13.573 106.048 14.1093C106.927 14.6455 107.627 15.368 108.148 16.2767C108.67 17.1854 108.93 18.1686 108.93 19.2262ZM103.277 15.7628C101.549 15.7628 100.529 16.5747 100.216 18.1984H106.07V18.042C106.011 17.4163 105.705 16.88 105.154 16.4331C104.603 15.9862 103.977 15.7628 103.277 15.7628ZM124.953 9.81906C125.326 9.81906 125.646 9.95313 125.914 10.2213C126.197 10.4745 126.339 10.7948 126.339 11.1821V24.1198C126.339 24.5071 126.212 24.8348 125.959 25.1029C125.706 25.3562 125.37 25.4828 124.953 25.4828C124.536 25.4828 124.194 25.3562 123.925 25.1029C123.672 24.8497 123.546 24.522 123.546 24.1198V15.1148L119.859 20.7457C119.71 20.9244 119.538 21.0734 119.345 21.1926C119.151 21.2969 118.95 21.3415 118.741 21.3267C118.548 21.3415 118.354 21.2969 118.16 21.1926C117.967 21.0734 117.796 20.9244 117.647 20.7457L113.96 14.9137V24.1198C113.96 24.522 113.84 24.8497 113.602 25.1029C113.364 25.3562 113.051 25.4828 112.664 25.4828C112.291 25.4828 111.986 25.3562 111.748 25.1029C111.509 24.8348 111.39 24.5071 111.39 24.1198V11.1821C111.39 10.8097 111.524 10.4894 111.792 10.2213C112.075 9.95313 112.41 9.81906 112.798 9.81906C113.021 9.81906 113.245 9.87865 113.468 9.99782C113.692 10.1021 113.863 10.2436 113.982 10.4224L118.853 17.9079L123.858 10.4224C123.978 10.2436 124.134 10.1021 124.328 9.99782C124.536 9.87865 124.745 9.81906 124.953 9.81906ZM140.2 19.2262C140.185 19.5838 140.044 19.8742 139.775 20.0977C139.507 20.3211 139.194 20.4329 138.837 20.4329H131.463C131.642 21.3118 132.052 22.0044 132.692 22.5109C133.333 23.0025 134.055 23.2483 134.86 23.2483C135.47 23.2483 135.947 23.1962 136.29 23.0919C136.632 22.9727 136.9 22.8535 137.094 22.7344C137.303 22.6003 137.444 22.5109 137.519 22.4662C137.787 22.3322 138.04 22.2651 138.278 22.2651C138.591 22.2651 138.859 22.3769 139.083 22.6003C139.306 22.8238 139.418 23.0844 139.418 23.3824C139.418 23.7846 139.209 24.1495 138.792 24.4773C138.375 24.8199 137.817 25.1104 137.116 25.3487C136.416 25.5871 135.709 25.7062 134.994 25.7062C133.742 25.7062 132.647 25.4455 131.709 24.9242C130.785 24.4028 130.07 23.6878 129.564 22.7791C129.057 21.8555 128.804 20.8202 128.804 19.6731C128.804 18.392 129.072 17.2673 129.609 16.2991C130.145 15.3308 130.852 14.5934 131.731 14.0869C132.61 13.5655 133.549 13.3049 134.547 13.3049C135.53 13.3049 136.454 13.573 137.318 14.1093C138.196 14.6455 138.897 15.368 139.418 16.2767C139.939 17.1854 140.2 18.1686 140.2 19.2262ZM134.547 15.7628C132.819 15.7628 131.798 16.5747 131.486 18.1984H137.34V18.042C137.28 17.4163 136.975 16.88 136.424 16.4331C135.873 15.9862 135.247 15.7628 134.547 15.7628Z" fill="#7957FB"/>
<path fill-rule="evenodd" clip-rule="evenodd" d="M16.7586 17.3793C16.7586 21.1501 13.7018 24.2069 9.93103 24.2069C6.16026 24.2069 3.10345 21.1501 3.10345 17.3793C3.10345 13.6086 6.16026 10.5518 9.93103 10.5518C12.0334 10.5518 13.9138 11.502 15.1663 12.9964L10.0358 16.4989L7.45581 14.5143L6.50971 15.7443L9.53557 18.0719L9.98146 18.4149L10.4461 18.0977L16.8297 13.7396L16.8299 13.7395L18.6015 12.5333C16.902 9.49913 13.656 7.4483 9.93103 7.4483C4.44628 7.4483 0 11.8946 0 17.3793C0 22.8641 4.44628 27.3104 9.93103 27.3104C15.4158 27.3104 19.8621 22.8641 19.8621 17.3793C19.8621 16.1789 19.6491 15.0282 19.2588 13.963L16.573 15.7916C16.6944 16.3011 16.7586 16.8327 16.7586 17.3793Z" fill="#7957FB"/>
</svg>
