<svg width="113" height="21" viewBox="0 0 113 21" fill="none" xmlns="http://www.w3.org/2000/svg">
<path d="M34.594 5.083C34.8773 5.083 35.121 5.185 35.325 5.389C35.5403 5.58167 35.648 5.82533 35.648 6.12V15.963C35.648 16.2577 35.5517 16.507 35.359 16.711C35.1663 16.9037 34.9113 17 34.594 17C34.2767 17 34.016 16.9037 33.812 16.711C33.6193 16.5183 33.523 16.269 33.523 15.963V9.112L30.718 13.396C30.6047 13.532 30.4743 13.6453 30.327 13.736C30.1797 13.8153 30.0267 13.8493 29.868 13.838C29.7207 13.8493 29.5733 13.8153 29.426 13.736C29.2787 13.6453 29.1483 13.532 29.035 13.396L26.23 8.959V15.963C26.23 16.269 26.1393 16.5183 25.958 16.711C25.7767 16.9037 25.5387 17 25.244 17C24.9607 17 24.7283 16.9037 24.547 16.711C24.3657 16.507 24.275 16.2577 24.275 15.963V6.12C24.275 5.83667 24.377 5.593 24.581 5.389C24.7963 5.185 25.0513 5.083 25.346 5.083C25.516 5.083 25.686 5.12833 25.856 5.219C26.026 5.29833 26.1563 5.406 26.247 5.542L29.953 11.237L33.761 5.542C33.8517 5.406 33.9707 5.29833 34.118 5.219C34.2767 5.12833 34.4353 5.083 34.594 5.083ZM45.3947 7.735C45.6894 7.735 45.933 7.83133 46.1257 8.024C46.3184 8.21667 46.4147 8.466 46.4147 8.772V15.963C46.4147 16.2577 46.3184 16.507 46.1257 16.711C45.933 16.9037 45.6894 17 45.3947 17C45.1 17 44.8564 16.9037 44.6637 16.711C44.4824 16.5183 44.386 16.2747 44.3747 15.98C44.0914 16.3087 43.706 16.592 43.2187 16.83C42.7427 17.0567 42.2384 17.17 41.7057 17.17C40.9237 17.17 40.2154 16.9717 39.5807 16.575C38.946 16.167 38.4417 15.606 38.0677 14.892C37.705 14.178 37.5237 13.3677 37.5237 12.461C37.5237 11.5543 37.705 10.744 38.0677 10.03C38.4304 9.30467 38.9234 8.74367 39.5467 8.347C40.1814 7.939 40.8784 7.735 41.6377 7.735C42.1817 7.735 42.6917 7.837 43.1677 8.041C43.6437 8.23367 44.046 8.483 44.3747 8.789V8.772C44.3747 8.47733 44.471 8.23367 44.6637 8.041C44.8564 7.837 45.1 7.735 45.3947 7.735ZM41.9607 15.3C42.6974 15.3 43.298 15.0337 43.7627 14.501C44.2274 13.957 44.4597 13.277 44.4597 12.461C44.4597 11.645 44.2274 10.965 43.7627 10.421C43.298 9.877 42.6974 9.605 41.9607 9.605C41.2354 9.605 40.6404 9.877 40.1757 10.421C39.711 10.965 39.4787 11.645 39.4787 12.461C39.4787 13.277 39.7054 13.957 40.1587 14.501C40.6234 15.0337 41.224 15.3 41.9607 15.3ZM53.4875 7.735C54.6435 7.735 55.4425 8.08067 55.8845 8.772C56.3265 9.452 56.5475 10.3983 56.5475 11.611V15.963C56.5475 16.2577 56.4512 16.507 56.2585 16.711C56.0658 16.9037 55.8222 17 55.5275 17C55.2328 17 54.9892 16.9037 54.7965 16.711C54.6038 16.507 54.5075 16.2577 54.5075 15.963V11.611C54.5075 10.9877 54.3772 10.5003 54.1165 10.149C53.8558 9.78633 53.4082 9.605 52.7735 9.605C52.1162 9.605 51.6005 9.79767 51.2265 10.183C50.8525 10.557 50.6655 11.033 50.6655 11.611V15.963C50.6655 16.2577 50.5692 16.507 50.3765 16.711C50.1838 16.9037 49.9402 17 49.6455 17C49.3508 17 49.1072 16.9037 48.9145 16.711C48.7218 16.507 48.6255 16.2577 48.6255 15.963V8.942C48.6255 8.64733 48.7218 8.40367 48.9145 8.211C49.1072 8.007 49.3508 7.905 49.6455 7.905C49.9402 7.905 50.1838 8.007 50.3765 8.211C50.5692 8.40367 50.6655 8.64733 50.6655 8.942V9.231C50.9715 8.823 51.3682 8.47167 51.8555 8.177C52.3542 7.88233 52.8982 7.735 53.4875 7.735ZM66.1135 7.735C66.4081 7.735 66.6518 7.83133 66.8445 8.024C67.0371 8.21667 67.1335 8.466 67.1335 8.772V15.963C67.1335 16.2577 67.0371 16.507 66.8445 16.711C66.6518 16.9037 66.4081 17 66.1135 17C65.8188 17 65.5751 16.9037 65.3825 16.711C65.2011 16.5183 65.1048 16.2747 65.0935 15.98C64.8101 16.3087 64.4248 16.592 63.9375 16.83C63.4615 17.0567 62.9571 17.17 62.4245 17.17C61.6425 17.17 60.9341 16.9717 60.2995 16.575C59.6648 16.167 59.1605 15.606 58.7865 14.892C58.4238 14.178 58.2425 13.3677 58.2425 12.461C58.2425 11.5543 58.4238 10.744 58.7865 10.03C59.1491 9.30467 59.6421 8.74367 60.2655 8.347C60.9001 7.939 61.5971 7.735 62.3565 7.735C62.9005 7.735 63.4105 7.837 63.8865 8.041C64.3625 8.23367 64.7648 8.483 65.0935 8.789V8.772C65.0935 8.47733 65.1898 8.23367 65.3825 8.041C65.5751 7.837 65.8188 7.735 66.1135 7.735ZM62.6795 15.3C63.4161 15.3 64.0168 15.0337 64.4815 14.501C64.9461 13.957 65.1785 13.277 65.1785 12.461C65.1785 11.645 64.9461 10.965 64.4815 10.421C64.0168 9.877 63.4161 9.605 62.6795 9.605C61.9541 9.605 61.3591 9.877 60.8945 10.421C60.4298 10.965 60.1975 11.645 60.1975 12.461C60.1975 13.277 60.4241 13.957 60.8775 14.501C61.3421 15.0337 61.9428 15.3 62.6795 15.3ZM76.8753 7.735C77.1699 7.735 77.4136 7.83133 77.6063 8.024C77.7989 8.21667 77.8953 8.466 77.8953 8.772V16.337C77.8953 17.7197 77.4646 18.7397 76.6033 19.397C75.7533 20.0657 74.6709 20.4 73.3563 20.4C73.0163 20.4 72.5459 20.3433 71.9453 20.23C71.3559 20.1167 70.9366 20.0033 70.6873 19.89C70.1319 19.652 69.8543 19.3233 69.8543 18.904C69.8543 18.8247 69.8713 18.734 69.9053 18.632C69.9733 18.3827 70.0866 18.19 70.2453 18.054C70.4153 17.9293 70.5966 17.867 70.7893 17.867C70.9026 17.867 71.0103 17.884 71.1123 17.918C71.1576 17.9293 71.4353 18.0313 71.9453 18.224C72.4666 18.428 72.9369 18.53 73.3563 18.53C74.1949 18.53 74.8183 18.36 75.2263 18.02C75.6456 17.6913 75.8553 17.221 75.8553 16.609V15.793C75.6059 16.1443 75.2263 16.4617 74.7163 16.745C74.2176 17.0283 73.6793 17.17 73.1013 17.17C72.3079 17.17 71.5826 16.9717 70.9253 16.575C70.2793 16.167 69.7693 15.606 69.3953 14.892C69.0213 14.178 68.8343 13.3677 68.8343 12.461C68.8343 11.5543 69.0156 10.744 69.3783 10.03C69.7523 9.30467 70.2566 8.74367 70.8913 8.347C71.5373 7.939 72.2513 7.735 73.0333 7.735C73.6113 7.735 74.1496 7.854 74.6483 8.092C75.1469 8.33 75.5493 8.619 75.8553 8.959V8.772C75.8553 8.47733 75.9516 8.23367 76.1443 8.041C76.3369 7.837 76.5806 7.735 76.8753 7.735ZM73.3563 15.3C74.1156 15.3 74.7333 15.0337 75.2093 14.501C75.6966 13.957 75.9403 13.277 75.9403 12.461C75.9403 11.645 75.6966 10.965 75.2093 10.421C74.7333 9.877 74.1156 9.605 73.3563 9.605C72.5969 9.605 71.9793 9.877 71.5033 10.421C71.0273 10.965 70.7893 11.645 70.7893 12.461C70.7893 13.277 71.0273 13.957 71.5033 14.501C71.9793 15.0337 72.5969 15.3 73.3563 15.3ZM87.93 12.24C87.9187 12.512 87.811 12.733 87.607 12.903C87.403 13.073 87.165 13.158 86.893 13.158H81.283C81.419 13.8267 81.7307 14.3537 82.218 14.739C82.7054 15.113 83.255 15.3 83.867 15.3C84.3317 15.3 84.6944 15.2603 84.955 15.181C85.2157 15.0903 85.4197 14.9997 85.567 14.909C85.7257 14.807 85.8334 14.739 85.89 14.705C86.094 14.603 86.2867 14.552 86.468 14.552C86.706 14.552 86.91 14.637 87.08 14.807C87.25 14.977 87.335 15.1753 87.335 15.402C87.335 15.708 87.1764 15.9857 86.859 16.235C86.5417 16.4957 86.1167 16.7167 85.584 16.898C85.0514 17.0793 84.513 17.17 83.969 17.17C83.017 17.17 82.184 16.9717 81.47 16.575C80.7674 16.1783 80.2234 15.6343 79.838 14.943C79.4527 14.2403 79.26 13.4527 79.26 12.58C79.26 11.6053 79.464 10.7497 79.872 10.013C80.28 9.27633 80.8184 8.71533 81.487 8.33C82.1557 7.93333 82.8697 7.735 83.629 7.735C84.377 7.735 85.0797 7.939 85.737 8.347C86.4057 8.755 86.9384 9.30467 87.335 9.996C87.7317 10.6873 87.93 11.4353 87.93 12.24ZM83.629 9.605C82.3144 9.605 81.538 10.2227 81.3 11.458H85.754V11.339C85.7087 10.863 85.4764 10.455 85.057 10.115C84.6377 9.775 84.1617 9.605 83.629 9.605ZM100.12 5.083C100.404 5.083 100.647 5.185 100.851 5.389C101.067 5.58167 101.174 5.82533 101.174 6.12V15.963C101.174 16.2577 101.078 16.507 100.885 16.711C100.693 16.9037 100.438 17 100.12 17C99.803 17 99.5424 16.9037 99.3384 16.711C99.1457 16.5183 99.0494 16.269 99.0494 15.963V9.112L96.2444 13.396C96.131 13.532 96.0007 13.6453 95.8534 13.736C95.706 13.8153 95.553 13.8493 95.3944 13.838C95.247 13.8493 95.0997 13.8153 94.9524 13.736C94.805 13.6453 94.6747 13.532 94.5614 13.396L91.7564 8.959V15.963C91.7564 16.269 91.6657 16.5183 91.4844 16.711C91.303 16.9037 91.065 17 90.7704 17C90.487 17 90.2547 16.9037 90.0734 16.711C89.892 16.507 89.8014 16.2577 89.8014 15.963V6.12C89.8014 5.83667 89.9034 5.593 90.1074 5.389C90.3227 5.185 90.5777 5.083 90.8724 5.083C91.0424 5.083 91.2124 5.12833 91.3824 5.219C91.5524 5.29833 91.6827 5.406 91.7734 5.542L95.4794 11.237L99.2874 5.542C99.378 5.406 99.497 5.29833 99.6444 5.219C99.803 5.12833 99.9617 5.083 100.12 5.083ZM111.72 12.24C111.709 12.512 111.601 12.733 111.397 12.903C111.193 13.073 110.955 13.158 110.683 13.158H105.073C105.209 13.8267 105.521 14.3537 106.008 14.739C106.495 15.113 107.045 15.3 107.657 15.3C108.122 15.3 108.484 15.2603 108.745 15.181C109.006 15.0903 109.21 14.9997 109.357 14.909C109.516 14.807 109.623 14.739 109.68 14.705C109.884 14.603 110.077 14.552 110.258 14.552C110.496 14.552 110.7 14.637 110.87 14.807C111.04 14.977 111.125 15.1753 111.125 15.402C111.125 15.708 110.966 15.9857 110.649 16.235C110.332 16.4957 109.907 16.7167 109.374 16.898C108.841 17.0793 108.303 17.17 107.759 17.17C106.807 17.17 105.974 16.9717 105.26 16.575C104.557 16.1783 104.013 15.6343 103.628 14.943C103.243 14.2403 103.05 13.4527 103.05 12.58C103.05 11.6053 103.254 10.7497 103.662 10.013C104.07 9.27633 104.608 8.71533 105.277 8.33C105.946 7.93333 106.66 7.735 107.419 7.735C108.167 7.735 108.87 7.939 109.527 8.347C110.196 8.755 110.728 9.30467 111.125 9.996C111.522 10.6873 111.72 11.4353 111.72 12.24ZM107.419 9.605C106.104 9.605 105.328 10.2227 105.09 11.458H109.544V11.339C109.499 10.863 109.266 10.455 108.847 10.115C108.428 9.775 107.952 9.605 107.419 9.605Z" fill="white"/>
<path fill-rule="evenodd" clip-rule="evenodd" d="M13.5 11C13.5 14.0376 11.0376 16.5 8 16.5C4.96243 16.5 2.5 14.0376 2.5 11C2.5 7.96243 4.96243 5.5 8 5.5C9.69358 5.5 11.2084 6.26547 12.2173 7.4693L8.08438 10.2908L6.00607 8.69211L5.24393 9.68289L7.68143 11.5579L8.04062 11.8342L8.41489 11.5787L13.5466 8.07531L14.9845 7.09625C13.6155 4.65207 11.0007 3 8 3C3.58172 3 0 6.58172 0 11C0 15.4183 3.58172 19 8 19C12.4183 19 16 15.4183 16 11C16 10.033 15.8284 9.10604 15.5141 8.24795L13.3505 9.72105C13.4483 10.1314 13.5 10.5597 13.5 11Z" fill="white"/>
</svg>
