<svg width="123" height="29" viewBox="0 0 123 29" fill="none" xmlns="http://www.w3.org/2000/svg">
<path fill-rule="evenodd" clip-rule="evenodd" d="M8 22C12.4183 22 16 18.4183 16 14C16 9.58172 12.4183 6 8 6C3.58172 6 0 9.58172 0 14C0 18.4183 3.58172 22 8 22ZM7.96 19.36C10.9423 19.36 13.36 16.9423 13.36 13.96C13.36 10.9777 10.9423 8.56 7.96 8.56C4.97766 8.56 2.56 10.9777 2.56 13.96C2.56 16.9423 4.97766 19.36 7.96 19.36Z" fill="#75D8D2"/>
<path fill-rule="evenodd" clip-rule="evenodd" d="M8 11.49H7V14.49H7.00497L7.00388 14.4916L10.8326 17.1725L11.475 16.255L8 13.8218V11.49Z" fill="#75D8D2"/>
<path d="M34.77 22H30.688V13.576H30.454L28.92 22H24.734L23.278 13.576H23.018V22H18.988L19.534 5.854H25.384L26.84 14.59H27.048L28.452 5.854H34.224L34.77 22ZM45.914 12.796L45.784 18.178C45.784 18.5073 45.862 18.7327 46.018 18.854C46.1914 18.958 46.4774 19.01 46.876 19.01L46.486 22.156C45.4807 22.2253 44.926 22.26 44.822 22.26C43.5394 22.26 42.7247 21.818 42.378 20.934H42.248C41.6067 21.818 40.6187 22.26 39.284 22.26C38.2614 22.26 37.4727 21.9307 36.918 21.272C36.3807 20.6133 36.112 19.712 36.112 18.568C36.112 17.1293 36.554 16.1327 37.438 15.578C38.3394 15.0233 39.752 14.6593 41.676 14.486V13.862C41.676 13.3767 41.4334 13.134 40.948 13.134C40.116 13.134 38.816 13.3853 37.048 13.888L36.398 10.092C38.6167 9.52 40.4627 9.234 41.936 9.234C43.4094 9.234 44.4407 9.52 45.03 10.092C45.6194 10.664 45.914 11.5653 45.914 12.796ZM40.896 19.218C41.5374 19.218 41.858 18.88 41.858 18.204V16.93C41.2167 17.0167 40.7574 17.1553 40.48 17.346C40.22 17.5193 40.09 17.8227 40.09 18.256C40.09 18.8973 40.3587 19.218 40.896 19.218ZM52.1943 10.456C53.1476 9.64133 54.1963 9.234 55.3403 9.234C56.4843 9.234 57.2816 9.50267 57.7323 10.04C58.2003 10.56 58.4343 11.3487 58.4343 12.406V22H54.0143V13.888C54.0143 13.4547 53.8236 13.238 53.4423 13.238C52.9569 13.238 52.5496 13.3593 52.2203 13.602V22H47.8523V9.546H51.8303L52.0903 10.456H52.1943ZM69.375 12.796L69.245 18.178C69.245 18.5073 69.323 18.7327 69.479 18.854C69.6523 18.958 69.9383 19.01 70.337 19.01L69.947 22.156C68.9417 22.2253 68.387 22.26 68.283 22.26C67.0003 22.26 66.1857 21.818 65.839 20.934H65.709C65.0677 21.818 64.0797 22.26 62.745 22.26C61.7223 22.26 60.9337 21.9307 60.379 21.272C59.8417 20.6133 59.573 19.712 59.573 18.568C59.573 17.1293 60.015 16.1327 60.899 15.578C61.8003 15.0233 63.213 14.6593 65.137 14.486V13.862C65.137 13.3767 64.8943 13.134 64.409 13.134C63.577 13.134 62.277 13.3853 60.509 13.888L59.859 10.092C62.0777 9.52 63.9237 9.234 65.397 9.234C66.8703 9.234 67.9017 9.52 68.491 10.092C69.0803 10.664 69.375 11.5653 69.375 12.796ZM64.357 19.218C64.9983 19.218 65.319 18.88 65.319 18.204V16.93C64.6777 17.0167 64.2183 17.1553 63.941 17.346C63.681 17.5193 63.551 17.8227 63.551 18.256C63.551 18.8973 63.8197 19.218 64.357 19.218ZM75.0832 23.144H77.7612C78.0732 23.144 78.2292 23.0053 78.2292 22.728V22.624C78.2292 22.364 78.0732 22.234 77.7612 22.234H75.0832C74.8059 22.234 74.6672 22.3727 74.6672 22.65V22.754C74.6672 23.014 74.8059 23.144 75.0832 23.144ZM76.1232 9.234H82.2592V12.146H80.3872V12.276C80.9419 12.7613 81.2192 13.394 81.2192 14.174C81.2192 16.9473 79.6505 18.334 76.5132 18.334H75.2652C74.9532 18.334 74.7972 18.4813 74.7972 18.776C74.7972 19.0533 74.9445 19.192 75.2392 19.192H78.7752C80.7685 19.192 81.7652 20.0587 81.7652 21.792C81.7652 23.2133 81.2885 24.236 80.3352 24.86C79.3819 25.5013 78.0645 25.822 76.3832 25.822C74.7019 25.822 73.4279 25.64 72.5612 25.276C71.7119 24.9293 71.2872 24.2707 71.2872 23.3C71.2872 22.7627 71.6252 22.312 72.3012 21.948V21.844C71.4519 21.376 71.0272 20.7 71.0272 19.816C71.0272 18.776 71.6945 17.9873 73.0292 17.45C72.4052 16.9993 71.9372 16.4793 71.6252 15.89C71.3305 15.2833 71.1832 14.486 71.1832 13.498C71.1832 12.1287 71.6252 11.08 72.5092 10.352C73.4105 9.60667 74.6152 9.234 76.1232 9.234ZM77.2672 14.226C77.2672 13.6713 77.1979 13.2727 77.0592 13.03C76.9379 12.77 76.7039 12.64 76.3572 12.64C76.0105 12.64 75.7679 12.77 75.6292 13.03C75.5079 13.2727 75.4472 13.654 75.4472 14.174C75.4472 15.2313 75.7592 15.76 76.3832 15.76C76.9725 15.76 77.2672 15.2487 77.2672 14.226ZM88.2183 12.952C87.7676 12.952 87.4729 13.108 87.3343 13.42C87.1956 13.7147 87.1263 14.174 87.1263 14.798H89.3883V14.174C89.3883 13.3593 88.9983 12.952 88.2183 12.952ZM88.3223 9.234C90.1076 9.234 91.3816 9.66733 92.1443 10.534C92.9243 11.3833 93.3143 12.6053 93.3143 14.2C93.3143 14.408 93.2536 15.344 93.1323 17.008H87.2043C87.2043 18.308 87.8023 18.958 88.9983 18.958C89.5703 18.958 90.6883 18.7587 92.3523 18.36L92.7163 21.584C91.2603 22.0347 89.8043 22.26 88.3483 22.26C86.5629 22.26 85.1936 21.6793 84.2403 20.518C83.2869 19.3393 82.8103 17.7447 82.8103 15.734C82.8103 11.4007 84.6476 9.234 88.3223 9.234ZM110.51 22H106.428V13.576H106.194L104.66 22H100.474L99.0182 13.576H98.7582V22H94.7282L95.2742 5.854H101.124L102.58 14.59H102.788L104.192 5.854H109.964L110.51 22ZM117.468 12.952C117.018 12.952 116.723 13.108 116.584 13.42C116.446 13.7147 116.376 14.174 116.376 14.798H118.638V14.174C118.638 13.3593 118.248 12.952 117.468 12.952ZM117.572 9.234C119.358 9.234 120.632 9.66733 121.394 10.534C122.174 11.3833 122.564 12.6053 122.564 14.2C122.564 14.408 122.504 15.344 122.382 17.008H116.454C116.454 18.308 117.052 18.958 118.248 18.958C118.82 18.958 119.938 18.7587 121.602 18.36L121.966 21.584C120.51 22.0347 119.054 22.26 117.598 22.26C115.813 22.26 114.444 21.6793 113.49 20.518C112.537 19.3393 112.06 17.7447 112.06 15.734C112.06 11.4007 113.898 9.234 117.572 9.234Z" fill="#75D8D2"/>
</svg>
