<svg width="16" height="16" viewBox="0 0 16 16" fill="none" xmlns="http://www.w3.org/2000/svg">
<path d="M13.3074 8.54073C13.3074 8.3078 13.3851 8.07487 13.3851 7.7643C13.3851 7.45373 13.3851 7.2208 13.3074 6.98787L14.9379 5.66794C15.0932 5.51265 15.0932 5.35737 15.0156 5.20208L13.4627 2.48458C13.3851 2.40693 13.2298 2.32929 12.9969 2.40693L11.0558 3.18336C10.6676 2.87279 10.2017 2.63986 9.73587 2.40693L9.42529 0.388215C9.50294 0.155286 9.26998 0 9.11472 0H6.009C5.85369 0 5.62079 0.155286 5.62079 0.310572L5.31021 2.40693C4.84436 2.56222 4.45614 2.87279 3.99028 3.18336L2.12685 2.40693C1.89392 2.32929 1.73864 2.40693 1.58332 2.56222L0.0304597 5.27972C-0.0471833 5.35737 0.0304597 5.5903 0.185746 5.74558L1.81625 6.98787C1.81625 7.2208 1.73861 7.45373 1.73861 7.7643C1.73861 8.07487 1.73861 8.3078 1.81625 8.54073L0.185746 9.86066C0.0304597 10.016 0.0304597 10.1712 0.108103 10.3266L1.66096 13.0441C1.73861 13.1217 1.89386 13.1993 2.12682 13.1217L4.0679 12.3453C4.45611 12.6558 4.92197 12.8888 5.38783 13.1217L5.6984 15.1404C5.6984 15.2957 5.85369 15.451 6.08661 15.451H9.19233C9.34765 15.451 9.58055 15.2957 9.58055 15.1404L9.89112 13.1217C10.357 12.8888 10.8228 12.6558 11.2111 12.3453L13.1521 13.1217C13.3074 13.1993 13.5403 13.1217 13.618 12.9664L15.1709 10.2489C15.2485 10.0936 15.2485 9.86066 15.0932 9.78302L13.3074 8.54073ZM7.56186 10.4818C6.08665 10.4818 4.84436 9.23952 4.84436 7.7643C4.84436 6.28908 6.08665 5.0468 7.56186 5.0468C9.03708 5.0468 10.2794 6.28908 10.2794 7.7643C10.2794 9.23952 9.03708 10.4818 7.56186 10.4818Z" fill="black" fill-opacity="0.4"/>
</svg>
